<svg xmlns="http://www.w3.org/2000/svg" width="31" height="32" viewBox="0 0 31 32" fill="none">
<path d="M3.666 0H26.8208C28.8487 0 30.4927 1.63488 30.4927 3.6516V28.3484C30.4927 30.3651 28.8487 32 26.8208 32H3.666C1.64133 32 1.91011e-05 30.3678 1.91011e-05 28.3543V3.65748C-0.0031239 2.68854 0.381724 1.75821 1.06957 1.07196C1.75742 0.38571 2.69167 -5.04135e-06 3.666 0Z" fill="#42B0D5"/>
<path d="M20.1041 15.1029L26.1234 7.62774L26.1057 7.60433L17.4079 11.7487L15.2615 2.43555H15.226L13.0796 11.7487L4.38182 7.60433L4.36408 7.62774L10.3834 15.1029L1.68555 19.2473L1.69737 19.2765H11.3472L9.2008 28.5955L9.22446 28.6073L15.2438 21.1321L21.2631 28.6073L21.2926 28.5897L19.1403 19.2765H28.7961L28.802 19.2473L20.1041 15.1029Z" fill="white"/>
</svg>
